PathFileType	4	(X/Y/Z)	./resultDataOpenSim/trcMotMarkerGrf/sub10/qtm-13-01.trc
DataRate	CameraRate	NumFrames	NumMarkers	Units	OrigDataRate	OrigDataStartFrame	OrigNumFrames
250.000000	250.000000	9	24	m	250.000000	56	444
Frame#	Time	L.Toe.Tip			R.Toe.Tip			L.Ankle.Lat			R.Ankle.Lat			L.Ankle.Med			R.Ankle.Med			L.Heel			R.Heel			L.Knee.Lat			R.Knee.Lat			L.Knee.Med			R.Knee.Med			L.Thigh.Upper			R.Thigh.Upper			L.ASIS			R.ASIS			V.Sacral			L.Acromium			R.Acromium			C7			L.Elbow			R.Elbow			L.Wrist.Lat			R.Wrist.Lat
		X1	Y1	Z1	X2	Y2	Z2	X3	Y3	Z3	X4	Y4	Z4	X5	Y5	Z5	X6	Y6	Z6	X7	Y7	Z7	X8	Y8	Z8	X9	Y9	Z9	X10	Y10	Z10	X11	Y11	Z11	X12	Y12	Z12	X13	Y13	Z13	X14	Y14	Z14	X15	Y15	Z15	X16	Y16	Z16	X17	Y17	Z17	X18	Y18	Z18	X19	Y19	Z19	X20	Y20	Z20	X21	Y21	Z21	X22	Y22	Z22	X23	Y23	Z23	X24	Y24	Z24

56	0.22	-1.3989767	0.061088853	-0.14718017	-0.70253524	0.039701237	-0.0041055364	-1.4050679	0.19762659	-0.18281444	-0.8396573	0.051728901	0.040885129	-1.368772	0.19443207	-0.10645453	-0.82954803	0.081245073	-0.042231352	-1.4456577	0.24419974	-0.13074143	-0.89412733	0.027233628	-0.0045628413	-1.1016913	0.42322866	-0.2193805	-0.84413194	0.4494087	0.083673247	-1.073921	0.37802946	-0.1102637	-0.85556868	0.46046608	-0.042453148	-1.0287984	0.80127097	-0.23178968	-0.9542757	0.85176098	0.14834926	-0.95281935	0.90814827	-0.17737504	-0.90947673	0.93524515	0.057847667	-1.1251453	0.93788345	-0.019945482	-0.96061611	1.3944952	-0.18562822	-0.99658291	1.3858202	0.13383488	-1.0580948	1.4239428	-0.03594023	-1.0280216	1.0556418	-0.2555824	-1.1605379	1.0873309	0.17339937	-0.83123264	0.9016023	-0.24326166	-1.1237062	0.86142212	0.2576495
57	0.224	-1.3889666	0.063922597	-0.14907449	-0.7024807	0.039612977	-0.0040761165	-1.3945928	0.20058195	-0.18354415	-0.83964505	0.051693604	0.040948415	-1.3587369	0.19720062	-0.10713003	-0.82939368	0.081266851	-0.042155783	-1.435358	0.24728791	-0.13137837	-0.89413635	0.027251214	-0.0044928532	-1.0899182	0.42299361	-0.2204526	-0.84055506	0.44963312	0.084057606	-1.0612503	0.37801536	-0.11126968	-0.85074798	0.46110679	-0.042151438	-1.0214996	0.80149566	-0.23145454	-0.94936152	0.85277912	0.149089	-0.94685551	0.90853015	-0.17673266	-0.90389274	0.93573665	0.058280077	-1.1195274	0.93829629	-0.019758216	-0.95475952	1.3951633	-0.18528016	-0.98982392	1.3863189	0.13443063	-1.0521544	1.4246951	-0.035317518	-1.0231955	1.0566387	-0.25545546	-1.1534189	1.0874512	0.17446925	-0.82756387	0.90134898	-0.24382933	-1.116054	0.86161771	0.25880349
58	0.228	-1.3779072	0.066761982	-0.15114308	-0.70243219	0.039531927	-0.00406912	-1.3839658	0.20349844	-0.18415221	-0.83969019	0.051669513	0.041030761	-1.3484152	0.1998284	-0.10771144	-0.82927645	0.081307335	-0.042078327	-1.4252474	0.24994942	-0.13170025	-0.89416245	0.027263613	-0.0044107251	-1.07815	0.42288311	-0.22148281	-0.83716117	0.44989966	0.084405683	-1.0487509	0.37833832	-0.1121411	-0.84603887	0.46161768	-0.041852365	-1.0142339	0.80177418	-0.23119796	-0.9447274	0.85368917	0.14979649	-0.94067493	0.90905083	-0.17603142	-0.89832829	0.93630664	0.058793893	-1.1139769	0.93869314	-0.019660161	-0.94888338	1.3958294	-0.18499623	-0.98281225	1.3868404	0.1349554	-1.0461317	1.4255447	-0.034710249	-1.0183825	1.0576646	-0.25526044	-1.1462329	1.0875619	0.17561043	-0.8236998	0.90106299	-0.24436726	-1.1082501	0.86178476	0.25990183
59	0.232	-1.3659946	0.069473595	-0.15317825	-0.70235762	0.039455915	-0.0040695243	-1.3733305	0.20635267	-0.18460098	-0.83976066	0.051668067	0.04112351	-1.3377878	0.20235976	-0.1082159	-0.82915531	0.081367291	-0.042007109	-1.4152558	0.2521637	-0.13180157	-0.89419461	0.027273608	-0.0043218641	-1.0663913	0.42290914	-0.222459	-0.83390454	0.45017166	0.084703337	-1.0364465	0.37895184	-0.11288514	-0.84143403	0.46198629	-0.041553696	-1.007033	0.80212061	-0.23096501	-0.94032365	0.85445551	0.15042557	-0.9342898	0.90969859	-0.17528489	-0.89286731	0.93694827	0.059377201	-1.1084827	0.93907678	-0.019625481	-0.94297837	1.3965018	-0.18476265	-0.97577822	1.3873866	0.13537412	-1.0400352	1.4264854	-0.034114262	-1.0135812	1.0587239	-0.25502469	-1.1389831	1.0876758	0.1768096	-0.81961152	0.90075734	-0.24488087	-1.1002568	0.86194681	0.26094839
60	0.236	-1.3533935	0.071979273	-0.15507649	-0.70224821	0.039383837	-0.0040798519	-1.3626271	0.20911352	-0.18490339	-0.83982499	0.051688847	0.04121532	-1.3270282	0.20484414	-0.1086401	-0.82899559	0.08144292	-0.041954491	-1.4053118	0.25395443	-0.13172708	-0.89422529	0.027281914	-0.004237181	-1.0546196	0.42308714	-0.2233587	-0.83082907	0.45042386	0.084994078	-1.024247	0.37979849	-0.11351268	-0.837094	0.46221644	-0.041214035	-0.99993918	0.80254924	-0.23073048	-0.93609987	0.85508384	0.15096652	-0.92791159	0.91041015	-0.17458582	-0.88752666	0.93765887	0.060019237	-1.1030877	0.93944864	-0.01972168	-0.93703242	1.397185	-0.18455908	-0.96889607	1.3879607	0.13567851	-1.0338805	1.427506	-0.033525655	-1.0087632	1.0598117	-0.2547867	-1.1316799	1.0878055	0.17805764	-0.81546048	0.90045307	-0.24543657	-1.0919731	0.86213177	0.26199319
61	0.24	-1.340228	0.07426176	-0.15686623	-0.70211886	0.039312826	-0.0041094808	-1.3517083	0.21173547	-0.18511154	-0.83986743	0.051722938	0.041300795	-1.3162849	0.20727332	-0.10899545	-0.82878312	0.08152484	-0.041929812	-1.3952785	0.25539237	-0.13153541	-0.89425019	0.027288	-0.0041705764	-1.0428157	0.42342536	-0.22416114	-0.82800077	0.4506309	0.085302455	-1.0120597	0.38081087	-0.11404383	-0.83317334	0.4623444	-0.040816888	-0.99298454	0.80306804	-0.23052283	-0.93200512	0.85560517	0.15143204	-0.92173863	0.91114075	-0.17401054	-0.88223012	0.93843898	0.06072526	-1.0979159	0.93980468	-0.020174332	-0.93105038	1.3978811	-0.1843721	-0.96215781	1.3885694	0.13588927	-1.0276907	1.4285889	-0.032947063	-1.0038957	1.0609197	-0.25457342	-1.1243384	1.0879596	0.17935016	-0.81145867	0.90016801	-0.24609225	-1.0833707	0.86235234	0.26307609
62	0.244	-1.3266174	0.076332432	-0.15863038	-0.70198754	0.039241225	-0.0041624811	-1.3404663	0.21413943	-0.18529454	-0.83988782	0.051761686	0.041380383	-1.3055386	0.20956405	-0.10930337	-0.82851982	0.081600866	-0.041933312	-1.3849803	0.25655817	-0.13132624	-0.89426739	0.027294025	-0.0041318683	-1.0309725	0.42392611	-0.22485523	-0.82546918	0.45075777	0.085618262	-1.0001107	0.38191521	-0.1144842	-0.82967644	0.46242395	-0.040411205	-0.98619415	0.80367891	-0.23038828	-0.92800411	0.85604617	0.15182174	-0.91578234	0.91190532	-0.1735473	-0.8769047	0.93928596	0.061509815	-1.0930994	0.94014056	-0.021234386	-0.92505981	1.3985918	-0.18420043	-0.95546811	1.3892217	0.13603	-1.0214971	1.4297134	-0.032388646	-0.99900384	1.0620467	-0.25438825	-1.1169651	1.0881361	0.18068509	-0.80773682	0.8999099	-0.24685543	-1.0745753	0.86260502	0.26418306
63	0.248	-1.3126838	0.078202385	-0.16043112	-0.70186114	0.039170431	-0.0042365912	-1.3288539	0.21621728	-0.18551258	-0.83989502	0.05179937	0.041450541	-1.2945567	0.21160316	-0.10958328	-0.82821741	0.081660582	-0.041958556	-1.3742631	0.25751175	-0.13124796	-0.89427806	0.027304301	-0.0041236067	-1.0190969	0.42458631	-0.22543709	-0.82328339	0.45078035	0.085944615	-0.98867977	0.38305837	-0.11484405	-0.82649577	0.46249484	-0.040065812	-0.97957075	0.80439481	-0.23032662	-0.9240634	0.85643093	0.15213286	-0.90993908	0.91274491	-0.17314045	-0.87154167	0.94019497	0.062386478	-1.088585	0.94047441	-0.022821274	-0.91910962	1.3993169	-0.18405111	-0.94876116	1.3899269	0.13611438	-1.0153339	1.4308623	-0.031860825	-0.99417781	1.0632016	-0.25420058	-1.1095541	1.0883219	0.18204637	-0.8042932	0.89967771	-0.24769522	-1.065728	0.86288877	0.2652844
64	0.252	-1.2985309	0.079872759	-0.16228088	-0.70173948	0.039103653	-0.004328613	-1.3168696	0.21789035	-0.18580555	-0.83990101	0.051831737	0.041499794	-1.2830543	0.21330877	-0.10986064	-0.82789369	0.081698883	-0.042000204	-1.363038	0.25827386	-0.13144255	-0.89428584	0.027320579	-0.0041419202	-1.0072101	0.425398	-0.22591549	-0.82151867	0.45070657	0.086316586	-0.97755774	0.38423549	-0.11517504	-0.82354331	0.46256392	-0.0398125	-0.97305855	0.80525242	-0.23025918	-0.920106	0.85678717	0.15239657	-0.90412275	0.91368802	-0.17275455	-0.86618611	0.94116125	0.063351515	-1.0840772	0.94085217	-0.024418002	-0.91325235	1.4000579	-0.18393245	-0.94203592	1.3906926	0.13616044	-1.0092295	1.4320225	-0.031368398	-0.98948391	1.0644	-0.25393186	-1.1021236	1.0884986	0.18335081	-0.80102889	0.89946851	-0.24856952	-1.0568861	0.86321405	0.26634616
